<?xml version="1.0" encoding="UTF-8" standalone="no"?>
<!-- Created with Inkscape (http://www.inkscape.org/) -->

<svg
   version="1.1"
   id="svg2"
   width="86.773331"
   height="103.06667"
   viewBox="0 0 86.773331 103.06667"
   sodipodi:docname="BFH_Logo_A_en_100_RGB.eps"
   xmlns:inkscape="http://www.inkscape.org/namespaces/inkscape"
   xmlns:sodipodi="http://sodipodi.sourceforge.net/DTD/sodipodi-0.dtd"
   xmlns="http://www.w3.org/2000/svg"
   xmlns:svg="http://www.w3.org/2000/svg">
  <defs
     id="defs6" />
  <sodipodi:namedview
     id="namedview4"
     pagecolor="#ffffff"
     bordercolor="#000000"
     borderopacity="0.25"
     inkscape:showpageshadow="2"
     inkscape:pageopacity="0.0"
     inkscape:pagecheckerboard="0"
     inkscape:deskcolor="#d1d1d1" />
  <g
     id="g8"
     inkscape:groupmode="layer"
     inkscape:label="ink_ext_XXXXXX"
     transform="matrix(1.3333333,0,0,-1.3333333,0,103.06667)">
    <g
       id="g10"
       transform="scale(0.1)">
      <path
         d="m 185.602,773.02 c 77.55,0 140.449,-62.868 140.449,-140.45 0,-52.101 -24.153,-97.316 -63.223,-121.828 -0.765,-0.484 -1.32,-1.211 -1.32,-2.156 0,-1.719 1.359,-2.156 1.453,-2.195 50.684,-19.618 82.488,-71.375 82.488,-131.485 0,-77.597 -62.914,-140.472 -140.472,-140.472 L 19.4961,234.473 C 8.73047,234.473 0,243.207 0,253.949 v 499.578 c 0,10.77 8.73047,19.493 19.4961,19.493 H 185.602"
         style="fill:#697d91;fill-opacity:1;fill-rule:nonzero;stroke:none"
         id="path12" />
      <path
         d="m 117.691,329.82 c -2.476,0 -4.593,2.118 -4.593,4.594 v 112.621 c 0,2.477 2.117,4.598 4.593,4.598 h 7.09 c 2.469,0 4.59,-2.121 4.59,-4.598 v -49.89 h 43.848 v 49.89 c 0,2.477 2.117,4.598 4.594,4.598 h 7.066 c 2.476,0 4.594,-2.121 4.594,-4.598 V 334.414 c 0,-2.476 -2.118,-4.594 -4.594,-4.594 h -7.066 c -2.477,0 -4.594,2.118 -4.594,4.594 v 48.418 h -43.848 v -48.418 c 0,-2.476 -2.121,-4.594 -4.59,-4.594 h -7.09"
         style="fill:#fac300;fill-opacity:1;fill-rule:nonzero;stroke:none"
         id="path14" />
      <path
         d="m 117.234,556.266 c -2.468,0 -4.613,2.136 -4.613,4.613 V 673.52 c 0,2.476 2.145,4.597 4.613,4.597 h 67.743 c 2.472,0 4.593,-2.121 4.593,-4.597 v -4.77 c 0,-2.469 -2.121,-4.594 -4.593,-4.594 h -56.075 v -39.152 h 47.77 c 2.473,0 4.594,-2.137 4.594,-4.613 v -4.77 c 0,-2.476 -2.121,-4.594 -4.594,-4.594 h -47.77 v -50.148 c 0,-2.477 -2.121,-4.613 -4.593,-4.613 h -7.075"
         style="fill:#fac300;fill-opacity:1;fill-rule:nonzero;stroke:none"
         id="path16" />
      <path
         d="M 6.96875,110.871 H 15.375 c 7.207,0 9.7578,2.774 9.7578,9.082 0,6.231 -2.3242,9.082 -9.4609,9.082 H 6.96875 Z m -0.07812,24.024 h 8.55857 c 6.0781,0 7.4336,2.546 7.4336,7.957 0,5.402 -1.7305,8.183 -7.8086,8.183 H 6.89063 Z M 2.01172,105.09 c -1.050782,0 -1.9531262,0.898 -1.9531262,1.953 v 47.82 c 0,1.047 0.9023442,1.953 1.9531262,1.953 H 15.2969 c 10.8906,0 14.8633,-5.711 14.8633,-13.816 0,-5.402 -1.3477,-8.332 -6.3047,-10.43 5.0312,-1.425 8.6328,-5.332 8.6328,-12.992 0,-10.281 -6.7578,-14.488 -16.3672,-14.488 H 2.01172"
         style="fill:#697d91;fill-opacity:1;fill-rule:nonzero;stroke:none"
         id="path18" />
      <path
         d="m 58.668,138.574 c -4.3555,0 -7.0586,-2.254 -7.5821,-11.269 h 14.9414 c 0,8.644 -1.9531,11.269 -7.3593,11.269 z m 0.8242,-34.461 c -9.8359,0 -15.3906,5.703 -15.3906,19.825 0,14.257 5.8554,19.734 14.7187,19.734 8.9297,0 14.0352,-5.098 14.0352,-18.692 v -1.347 c 0,-0.672 -0.5274,-1.199 -1.1992,-1.199 H 51.0117 c 0.1446,-10.286 2.4024,-12.844 8.6328,-12.844 3.2266,0 5.3321,0.976 7.2774,2.336 0.9062,0.672 2.1797,0.449 2.7812,-0.383 l 1.1992,-1.57 c 0.6016,-0.832 0.4493,-2.11 -0.4492,-2.707 -3.0742,-2.176 -6.2304,-3.153 -10.9609,-3.153"
         style="fill:#697d91;fill-opacity:1;fill-rule:nonzero;stroke:none"
         id="path20" />
      <path
         d="m 87.8828,105.09 c -1.0508,0 -1.957,0.898 -1.957,1.953 v 33.711 c 0,1.043 0.9062,1.941 1.957,1.941 h 1.1211 c 1.1289,0 2.1055,-0.82 2.3281,-1.941 l 0.6758,-3.379 c 2.7774,3.445 6.2305,6.004 10.5862,6.004 0.222,0 0.527,0 0.75,-0.078 0.304,-0.078 0.601,-0.371 0.527,-0.672 l -0.527,-5.254 c -0.074,-0.527 -0.602,-0.977 -1.199,-0.91 -0.375,0.078 -0.829,0.078 -1.204,0.078 -3.4527,0 -5.7808,-1.277 -8.5582,-3.828 v -25.672 c 0,-1.055 -0.8984,-1.953 -1.9492,-1.953 h -2.5508"
         style="fill:#697d91;fill-opacity:1;fill-rule:nonzero;stroke:none"
         id="path22" />
      <path
         d="m 117.402,105.09 c -1.05,0 -1.953,0.898 -1.953,1.953 v 33.711 c 0,1.043 0.903,1.941 1.953,1.941 h 1.121 c 1.129,0 2.106,-0.82 2.332,-1.875 l 0.598,-2.773 c 3.309,3.301 7.059,5.625 11.485,5.625 5.406,0 9.089,-2.774 9.089,-9.16 v -27.469 c 0,-1.055 -0.906,-1.953 -1.953,-1.953 h -2.554 c -1.051,0 -1.95,0.898 -1.95,1.953 v 25.449 c 0,4.278 -1.199,5.477 -4.578,5.477 -3.004,0 -6.383,-2.098 -9.09,-4.5 v -26.426 c 0,-1.055 -0.894,-1.953 -1.945,-1.953 h -2.555"
         style="fill:#697d91;fill-opacity:1;fill-rule:nonzero;stroke:none"
         id="path24" />
      <path
         d="m 190.691,104.113 c -7.207,0 -14.113,3.828 -14.113,15.84 v 34.91 c 0,1.047 0.902,1.953 1.953,1.953 h 3 c 1.051,0 1.953,-0.906 1.953,-1.953 v -33.711 c 0,-7.578 1.426,-11.035 7.957,-11.035 5.411,0 9.161,2.707 11.336,4.805 v 39.941 c 0,1.047 0.907,1.953 1.953,1.953 h 3.004 c 1.051,0 1.954,-0.906 1.954,-1.953 v -47.82 c 0,-1.055 -0.903,-1.953 -1.954,-1.953 h -1.203 c -1.125,0 -2.176,0.828 -2.398,1.875 l -0.754,2.93 c -2.926,-2.93 -7.133,-5.782 -12.688,-5.782"
         style="fill:#697d91;fill-opacity:1;fill-rule:nonzero;stroke:none"
         id="path26" />
      <path
         d="m 227.898,105.09 c -1.046,0 -1.953,0.898 -1.953,1.953 v 33.711 c 0,1.043 0.907,1.941 1.953,1.941 h 1.125 c 1.129,0 2.106,-0.82 2.329,-1.875 l 0.601,-2.773 c 3.305,3.301 7.055,5.625 11.485,5.625 5.406,0 9.085,-2.774 9.085,-9.16 v -27.469 c 0,-1.055 -0.902,-1.953 -1.953,-1.953 h -2.55 c -1.051,0 -1.95,0.898 -1.95,1.953 v 25.449 c 0,4.278 -1.203,5.477 -4.582,5.477 -3.004,0 -6.383,-2.098 -9.086,-4.5 v -26.426 c 0,-1.055 -0.898,-1.953 -1.949,-1.953 h -2.555"
         style="fill:#697d91;fill-opacity:1;fill-rule:nonzero;stroke:none"
         id="path28" />
      <path
         d="m 272.797,149.68 c -2.555,0 -4.43,2.031 -4.43,4.578 0,2.629 1.949,4.66 4.504,4.66 2.625,0 4.578,-1.953 4.578,-4.66 0,-2.547 -1.953,-4.578 -4.652,-4.578 z m -1.125,-44.59 c -1.051,0 -1.949,0.898 -1.949,1.953 v 30.625 l -3.606,0.605 c -1.129,0.145 -1.953,1.122 -1.953,2.254 v 0.227 c 0,1.043 0.899,1.941 1.953,1.941 h 8.106 c 1.05,0 1.953,-0.898 1.953,-1.941 v -33.711 c 0,-1.055 -0.903,-1.953 -1.953,-1.953 h -2.551"
         style="fill:#697d91;fill-opacity:1;fill-rule:nonzero;stroke:none"
         id="path30" />
      <path
         d="m 301.98,105.09 c -1.125,0 -2.175,0.75 -2.55,1.875 l -11.188,33.855 c -0.297,0.977 0.375,1.875 1.352,1.875 h 3.156 c 1.121,0 2.176,-0.742 2.477,-1.875 l 5.851,-19.668 c 0.832,-2.703 1.731,-7.207 2.328,-9.754 h 0.074 c 0.458,2.247 1.426,6.981 2.333,9.911 l 5.851,19.511 c 0.305,1.133 1.356,1.875 2.481,1.875 h 2.773 c 0.977,0 1.656,-0.898 1.352,-1.875 l -11.411,-33.855 c -0.375,-1.125 -1.425,-1.875 -2.546,-1.875 h -2.333"
         style="fill:#697d91;fill-opacity:1;fill-rule:nonzero;stroke:none"
         id="path32" />
      <path
         d="m 341.926,138.574 c -4.36,0 -7.059,-2.254 -7.586,-11.269 h 14.941 c 0,8.644 -1.953,11.269 -7.355,11.269 z m 0.824,-34.461 c -9.836,0 -15.391,5.703 -15.391,19.825 0,14.257 5.86,19.734 14.715,19.734 8.934,0 14.039,-5.098 14.039,-18.692 v -1.347 c 0,-0.672 -0.527,-1.199 -1.203,-1.199 h -20.64 c 0.148,-10.286 2.402,-12.844 8.628,-12.844 3.231,0 5.329,0.976 7.282,2.336 0.906,0.672 2.179,0.449 2.781,-0.383 l 1.199,-1.57 c 0.602,-0.832 0.449,-2.11 -0.449,-2.707 -3.082,-2.176 -6.231,-3.153 -10.961,-3.153"
         style="fill:#697d91;fill-opacity:1;fill-rule:nonzero;stroke:none"
         id="path34" />
      <path
         d="m 371.145,105.09 c -1.051,0 -1.957,0.898 -1.957,1.953 v 33.711 c 0,1.043 0.906,1.941 1.957,1.941 h 1.121 c 1.129,0 2.105,-0.82 2.328,-1.941 l 0.676,-3.379 c 2.777,3.445 6.23,6.004 10.585,6.004 0.223,0 0.528,0 0.75,-0.078 0.305,-0.078 0.602,-0.371 0.528,-0.672 l -0.528,-5.254 c -0.074,-0.527 -0.597,-0.977 -1.199,-0.91 -0.379,0.078 -0.828,0.078 -1.203,0.078 -3.449,0 -5.781,-1.277 -8.558,-3.828 v -25.672 c 0,-1.055 -0.899,-1.953 -1.95,-1.953 h -2.55"
         style="fill:#697d91;fill-opacity:1;fill-rule:nonzero;stroke:none"
         id="path36" />
      <path
         d="m 407.898,104.113 c -4.125,0 -8.101,1.348 -10.882,2.93 -0.903,0.594 -1.2,1.797 -0.676,2.703 l 0.824,1.426 c 0.527,0.976 1.727,1.269 2.633,0.754 2.625,-1.504 5.324,-2.403 8.406,-2.403 5.102,0 6.68,2.02 6.68,5.547 0,4.207 -1.953,5.028 -7.957,6.688 -5.254,1.426 -9.613,4.199 -9.613,11.633 0,5.476 3.531,10.281 11.789,10.281 3.601,0 6.308,-0.594 8.711,-1.57 0.972,-0.45 1.425,-1.653 0.972,-2.629 l -0.676,-1.504 c -0.449,-0.977 -1.578,-1.504 -2.625,-1.055 -2.179,0.977 -3.906,1.281 -6.16,1.281 -4.051,0 -5.926,-1.425 -5.926,-4.648 0,-3.535 1.579,-4.434 6.754,-5.859 5.782,-1.575 11.036,-3.829 11.036,-12.317 0,-7.801 -4.43,-11.258 -13.29,-11.258"
         style="fill:#697d91;fill-opacity:1;fill-rule:nonzero;stroke:none"
         id="path38" />
      <path
         d="m 439.453,149.68 c -2.555,0 -4.43,2.031 -4.43,4.578 0,2.629 1.954,4.66 4.504,4.66 2.625,0 4.578,-1.953 4.578,-4.66 0,-2.547 -1.953,-4.578 -4.652,-4.578 z m -1.129,-44.59 c -1.051,0 -1.953,0.898 -1.953,1.953 v 30.625 l -3.601,0.605 c -1.125,0.145 -1.95,1.122 -1.95,2.254 v 0.227 c 0,1.043 0.899,1.941 1.95,1.941 h 8.109 c 1.051,0 1.953,-0.898 1.953,-1.941 v -33.711 c 0,-1.055 -0.902,-1.953 -1.953,-1.953 h -2.555"
         style="fill:#697d91;fill-opacity:1;fill-rule:nonzero;stroke:none"
         id="path40" />
      <path
         d="m 456.848,137.441 c -1.051,0 -1.95,0.911 -1.95,1.954 v 1.359 c 0,1.043 0.899,1.941 1.95,1.941 h 2.328 v 7.735 c 0,1.133 0.824,2.109 1.875,2.402 l 2.703,0.527 c 0.976,0.227 1.875,-0.527 1.875,-1.504 v -9.16 h 5.781 c 1.051,0 1.953,-0.898 1.953,-1.941 v -1.359 c 0,-1.043 -0.902,-1.954 -1.953,-1.954 h -5.781 v -24.695 c 0,-2.402 0.976,-3.449 3.082,-3.449 0.898,0 1.648,0.148 2.324,0.371 0.977,0.305 2.028,-0.301 2.328,-1.277 l 0.297,-1.125 c 0.231,-1.055 -0.297,-2.098 -1.347,-2.481 -1.2,-0.371 -2.551,-0.672 -4.129,-0.672 -5.102,0 -9.008,2.032 -9.008,8.035 v 25.293 h -2.328"
         style="fill:#697d91;fill-opacity:1;fill-rule:nonzero;stroke:none"
         id="path42" />
      <path
         d="m 489.273,90 c -1.05,-0.3008 -2.101,0.3711 -2.402,1.4258 l -0.371,1.4258 c -0.305,1.0547 0.297,2.1797 1.348,2.4804 4.656,1.4961 6.605,3.5274 8.484,9.758 h -0.078 c -0.899,0 -1.649,0.594 -1.953,1.426 l -10.656,34.304 c -0.301,0.977 0.375,1.875 1.351,1.875 h 3.152 c 1.125,0 2.18,-0.742 2.477,-1.875 l 5.781,-20.261 c 0.824,-3.008 1.731,-7.434 2.25,-10.293 h 0.078 c 0.524,2.703 1.204,6.609 2.325,10.293 l 6.086,20.261 c 0.371,1.133 1.425,1.875 2.546,1.875 h 2.782 c 0.972,0 1.652,-0.898 1.351,-1.875 L 501.965,103.887 C 498.586,93.75 495.652,91.5039 489.273,90"
         style="fill:#697d91;fill-opacity:1;fill-rule:nonzero;stroke:none"
         id="path44" />
      <path
         d="m 15.4453,19.2188 c 5.707,0 8.4063,3.0781 8.4063,14.6406 0,11.6289 -2.7774,14.7148 -8.4805,14.7148 -5.70704,0 -8.41016,-3.0078 -8.41016,-14.6367 0,-11.5625 2.78125,-14.7187 8.48436,-14.7187 z m 0,-5.1055 c -9.16014,0 -15.3906125,5.7031 -15.3906125,19.8242 0,14.1094 6.0820325,19.7344 15.2383125,19.7344 9.1601,0 15.4687,-5.625 15.4687,-19.7344 0,-14.1211 -6.1562,-19.8242 -15.3164,-19.8242"
         style="fill:#697d91;fill-opacity:1;fill-rule:nonzero;stroke:none"
         id="path46" />
      <path
         d="m 41.8906,47.4414 c -1.0508,0 -1.9531,0.9102 -1.9531,1.9531 v 1.3594 c 0,1.043 0.9023,1.9414 1.9531,1.9414 h 2.1758 v 6.0078 c 0,8.6407 4.4297,11.1914 9.9844,11.1914 2.1758,0 4.2812,-0.3828 6.082,-1.125 0.9766,-0.3789 1.4258,-1.582 0.9766,-2.5586 l -0.6016,-1.2695 c -0.4492,-0.9766 -1.6523,-1.5039 -2.707,-1.2109 -0.8945,0.3047 -1.875,0.4609 -2.8477,0.4609 -3.1562,0 -4.4297,-1.582 -4.4297,-5.4101 v -6.086 h 5.1055 c 1.0508,0 1.9492,-0.8984 1.9492,-1.9414 v -1.3594 c 0,-1.0429 -0.8984,-1.9531 -1.9492,-1.9531 H 50.5234 V 17.043 c 0,-1.0547 -0.8984,-1.9532 -1.9531,-1.9532 h -2.5508 c -1.0547,0 -1.9531,0.8985 -1.9531,1.9532 v 30.3984 h -2.1758"
         style="fill:#697d91;fill-opacity:1;fill-rule:nonzero;stroke:none"
         id="path48" />
      <path
         d="m 99.1992,44.8945 -2.625,-8.9375 h 12.6098 l -2.473,8.9375 c -2.254,8.0352 -2.859,10.9571 -3.606,14.9414 h -0.152 c -0.75,-4.1328 -1.426,-7.0625 -3.7538,-14.9414 z M 85.3867,15.0898 c -0.9765,0 -1.6523,0.8985 -1.3476,1.875 l 14.7851,48.0469 c 0.375,1.1211 1.4258,1.875 2.5548,1.875 h 3.754 c 1.121,0 2.176,-0.7539 2.472,-1.875 l 14.497,-48.0469 c 0.222,-0.9765 -0.457,-1.875 -1.434,-1.875 h -3.676 c -1.129,0 -2.179,0.75 -2.476,1.875 l -3.68,13.1329 H 94.8477 L 91.0156,16.9648 c -0.2968,-1.125 -1.3476,-1.875 -2.4765,-1.875 h -3.1524"
         style="fill:#697d91;fill-opacity:1;fill-rule:nonzero;stroke:none"
         id="path50" />
      <path
         d="m 149.184,19.668 c 5.332,0 7.656,1.9531 7.656,14.0429 0,12.0821 -1.953,14.4141 -7.055,14.4141 -3.676,0 -6.23,-1.8828 -8.933,-4.4336 V 23.3516 c 2.175,-2.1094 5.179,-3.6836 8.332,-3.6836 z M 136.348,0 c -1.051,0 -1.953,0.898438 -1.953,1.95313 V 50.7539 c 0,1.043 0.902,1.9414 1.953,1.9414 h 1.125 c 1.125,0 2.175,-0.8203 2.398,-1.875 l 0.602,-2.4023 c 2.855,3.1562 6.461,5.2539 10.441,5.2539 7.207,0 12.836,-4.0508 12.836,-19.5117 0,-14.1211 -4.133,-20.0469 -12.914,-20.0469 -4.133,0 -7.582,1.875 -9.984,4.207 V 1.95313 C 140.852,0.898438 139.949,0 138.902,0 h -2.554"
         style="fill:#697d91;fill-opacity:1;fill-rule:nonzero;stroke:none"
         id="path52" />
      <path
         d="m 192.207,19.668 c 5.328,0 7.656,1.9531 7.656,14.0429 0,12.0821 -1.953,14.4141 -7.054,14.4141 -3.684,0 -6.231,-1.8828 -8.938,-4.4336 V 23.3516 c 2.18,-2.1094 5.184,-3.6836 8.336,-3.6836 z M 179.371,0 c -1.055,0 -1.953,0.898438 -1.953,1.95313 V 50.7539 c 0,1.043 0.898,1.9414 1.953,1.9414 h 1.121 c 1.129,0 2.18,-0.8203 2.403,-1.875 l 0.601,-2.4023 c 2.856,3.1562 6.461,5.2539 10.434,5.2539 7.207,0 12.843,-4.0508 12.843,-19.5117 0,-14.1211 -4.132,-20.0469 -12.918,-20.0469 -4.125,0 -7.582,1.875 -9.984,4.207 V 1.95313 C 183.871,0.898438 182.973,0 181.918,0 h -2.547"
         style="fill:#697d91;fill-opacity:1;fill-rule:nonzero;stroke:none"
         id="path54" />
      <path
         d="m 227.273,14.3359 c -4.8,0 -6.828,2.5586 -6.828,9.1602 v 43.9961 c 0,1.043 0.899,1.9531 1.953,1.9531 h 2.547 c 1.055,0 1.953,-0.9101 1.953,-1.9531 V 22.2969 c 0,-1.875 0.829,-2.6289 2.629,-2.6289 0.301,0 0.602,0 0.825,0.0781 0.375,0 0.753,-0.2227 0.824,-0.6055 l 0.379,-2.1758 c 0.222,-1.0468 -0.45,-2.1015 -1.5,-2.3242 -0.907,-0.1484 -1.879,-0.3047 -2.782,-0.3047"
         style="fill:#697d91;fill-opacity:1;fill-rule:nonzero;stroke:none"
         id="path56" />
      <path
         d="m 248.125,59.6797 c -2.555,0 -4.43,2.0312 -4.43,4.5781 0,2.6289 1.953,4.6602 4.504,4.6602 2.625,0 4.578,-1.9532 4.578,-4.6602 0,-2.5469 -1.953,-4.5781 -4.652,-4.5781 z m -1.129,-44.5899 c -1.051,0 -1.953,0.8985 -1.953,1.9532 v 30.625 l -3.602,0.6054 c -1.125,0.1446 -1.949,1.1211 -1.949,2.2539 v 0.2266 c 0,1.043 0.899,1.9414 1.949,1.9414 h 8.11 c 1.051,0 1.953,-0.8984 1.953,-1.9414 V 17.043 c 0,-1.0547 -0.902,-1.9532 -1.953,-1.9532 h -2.555"
         style="fill:#697d91;fill-opacity:1;fill-rule:nonzero;stroke:none"
         id="path58" />
      <path
         d="m 279.332,48.5742 c -4.355,0 -7.059,-2.2539 -7.586,-11.2695 h 14.942 c 0,8.6445 -1.954,11.2695 -7.356,11.2695 z m 0.824,-34.4609 c -9.836,0 -15.39,5.7031 -15.39,19.8242 0,14.2578 5.855,19.7344 14.714,19.7344 8.934,0 14.04,-5.0977 14.04,-18.6914 v -1.3477 c 0,-0.6719 -0.528,-1.1992 -1.2,-1.1992 h -20.644 c 0.144,-10.2852 2.402,-12.8438 8.633,-12.8438 3.226,0 5.332,0.9766 7.281,2.336 0.902,0.6719 2.176,0.4492 2.777,-0.3828 l 1.199,-1.5703 c 0.602,-0.8321 0.45,-2.1094 -0.449,-2.7071 -3.074,-2.1758 -6.23,-3.1523 -10.961,-3.1523"
         style="fill:#697d91;fill-opacity:1;fill-rule:nonzero;stroke:none"
         id="path60" />
      <path
         d="m 319,19.668 c 3.676,0 6.23,1.5039 8.93,4.0547 v 20.3398 c -2.176,2.1094 -5.18,4.0625 -8.328,4.0625 -5.332,0 -7.664,-1.9531 -7.664,-14.043 0,-12.0898 1.953,-14.414 7.062,-14.414 z m -1.129,-5.5547 c -7.207,0 -12.836,4.0508 -12.836,19.5195 0,14.1133 4.129,20.0391 12.91,20.0391 4.129,0 7.582,-2.2461 9.985,-4.5781 v 18.3984 c 0,1.043 0.902,1.9531 1.953,1.9531 h 2.555 c 1.046,0 1.953,-0.9101 1.953,-1.9531 V 17.043 c 0,-1.0547 -0.907,-1.9532 -1.953,-1.9532 h -1.129 c -1.129,0 -2.176,0.75 -2.477,1.875 l -0.527,2.0313 c -2.852,-3.1563 -6.453,-4.8828 -10.434,-4.8828"
         style="fill:#697d91;fill-opacity:1;fill-rule:nonzero;stroke:none"
         id="path62" />
      <path
         d="m 381.098,14.1133 c -5.328,0 -10.356,1.5703 -13.957,4.0508 -0.907,0.6054 -1.203,1.875 -0.602,2.7851 l 0.977,1.7188 c 0.597,0.9062 1.8,1.1992 2.625,0.6054 3.379,-2.2578 6.082,-3.2343 10.433,-3.2343 6.906,0 9.461,3.1562 9.461,8.4882 0,6.3086 -3.527,8.1055 -9.836,10.5079 -8.558,3.3086 -12.461,6.7578 -12.461,15.3906 0,8.8555 5.559,13.3672 14.563,13.3672 4.73,0 7.957,-0.9063 10.808,-2.5586 0.907,-0.5274 1.282,-1.7266 0.754,-2.6953 l -0.976,-1.9532 c -0.524,-0.9062 -1.727,-1.2773 -2.629,-0.75 -2.324,1.3477 -4.578,2.0196 -7.582,2.0196 -4.949,0 -8.106,-2.0196 -8.106,-7.2071 0,-5.2539 2.028,-6.7578 8.258,-9.1601 8.031,-3.0742 14.34,-6.2305 14.34,-16.582 0,-7.6641 -3.828,-14.793 -16.07,-14.793"
         style="fill:#697d91;fill-opacity:1;fill-rule:nonzero;stroke:none"
         id="path64" />
      <path
         d="m 424.094,14.1133 c -9.614,0 -14.946,6.3086 -14.946,19.8242 0,14.3359 5.711,19.7344 15.016,19.7344 3.606,0 6.457,-0.8203 9.16,-2.9961 0.899,-0.6758 0.977,-1.875 0.305,-2.707 l -1.203,-1.504 c -0.75,-0.8203 -1.953,-0.8984 -2.778,-0.2226 -1.656,1.2773 -3.226,1.9531 -5.707,1.9531 -5.703,0 -7.882,-2.4726 -7.882,-14.2578 0,-11.5625 2.402,-14.3477 8.41,-14.3477 2.324,0 3.898,0.8985 5.476,2.1797 0.825,0.6719 2.106,0.6055 2.782,-0.2265 l 1.351,-1.4258 c 0.75,-0.75 0.672,-2.0313 -0.152,-2.7031 -2.477,-2.1797 -5.559,-3.3008 -9.832,-3.3008"
         style="fill:#697d91;fill-opacity:1;fill-rule:nonzero;stroke:none"
         id="path66" />
      <path
         d="m 453.469,59.6797 c -2.555,0 -4.43,2.0312 -4.43,4.5781 0,2.6289 1.953,4.6602 4.5,4.6602 2.629,0 4.582,-1.9532 4.582,-4.6602 0,-2.5469 -1.953,-4.5781 -4.652,-4.5781 z M 452.34,15.0898 c -1.051,0 -1.953,0.8985 -1.953,1.9532 v 30.625 l -3.606,0.6054 c -1.121,0.1446 -1.945,1.1211 -1.945,2.2539 v 0.2266 c 0,1.043 0.894,1.9414 1.945,1.9414 h 8.114 c 1.046,0 1.953,-0.8984 1.953,-1.9414 V 17.043 c 0,-1.0547 -0.907,-1.9532 -1.953,-1.9532 h -2.555"
         style="fill:#697d91;fill-opacity:1;fill-rule:nonzero;stroke:none"
         id="path68" />
      <path
         d="m 484.672,48.5742 c -4.356,0 -7.055,-2.2539 -7.582,-11.2695 h 14.941 c 0,8.6445 -1.953,11.2695 -7.359,11.2695 z m 0.824,-34.4609 c -9.832,0 -15.391,5.7031 -15.391,19.8242 0,14.2578 5.856,19.7344 14.719,19.7344 8.93,0 14.039,-5.0977 14.039,-18.6914 v -1.3477 c 0,-0.6719 -0.527,-1.1992 -1.203,-1.1992 h -20.644 c 0.148,-10.2852 2.402,-12.8438 8.632,-12.8438 3.231,0 5.332,0.9766 7.282,2.336 0.902,0.6719 2.175,0.4492 2.777,-0.3828 l 1.203,-1.5703 c 0.602,-0.8321 0.449,-2.1094 -0.449,-2.7071 -3.078,-2.1758 -6.231,-3.1523 -10.965,-3.1523"
         style="fill:#697d91;fill-opacity:1;fill-rule:nonzero;stroke:none"
         id="path70" />
      <path
         d="m 513.891,15.0898 c -1.055,0 -1.953,0.8985 -1.953,1.9532 v 33.7109 c 0,1.043 0.898,1.9414 1.953,1.9414 h 1.125 c 1.129,0 2.101,-0.8203 2.328,-1.875 l 0.601,-2.7734 c 3.301,3.3008 7.055,5.625 11.485,5.625 5.406,0 9.086,-2.7735 9.086,-9.1602 V 17.043 c 0,-1.0547 -0.903,-1.9532 -1.953,-1.9532 h -2.555 c -1.047,0 -1.953,0.8985 -1.953,1.9532 v 25.4492 c 0,4.2773 -1.2,5.4766 -4.575,5.4766 -3.003,0 -6.382,-2.0977 -9.085,-4.5 V 17.043 c 0,-1.0547 -0.899,-1.9532 -1.954,-1.9532 h -2.55"
         style="fill:#697d91;fill-opacity:1;fill-rule:nonzero;stroke:none"
         id="path72" />
      <path
         d="m 566.566,14.1133 c -9.609,0 -14.941,6.3086 -14.941,19.8242 0,14.3359 5.711,19.7344 15.016,19.7344 3.601,0 6.461,-0.8203 9.16,-2.9961 0.902,-0.6758 0.976,-1.875 0.297,-2.707 l -1.2,-1.504 c -0.75,-0.8203 -1.949,-0.8984 -2.773,-0.2226 -1.656,1.2773 -3.234,1.9531 -5.707,1.9531 -5.703,0 -7.883,-2.4726 -7.883,-14.2578 0,-11.5625 2.403,-14.3477 8.406,-14.3477 2.329,0 3.903,0.8985 5.481,2.1797 0.824,0.6719 2.105,0.6055 2.777,-0.2265 l 1.356,-1.4258 c 0.746,-0.75 0.672,-2.0313 -0.153,-2.7031 -2.476,-2.1797 -5.558,-3.3008 -9.836,-3.3008"
         style="fill:#697d91;fill-opacity:1;fill-rule:nonzero;stroke:none"
         id="path74" />
      <path
         d="m 601.383,48.5742 c -4.356,0 -7.059,-2.2539 -7.582,-11.2695 h 14.937 c 0,8.6445 -1.953,11.2695 -7.355,11.2695 z m 0.824,-34.4609 c -9.836,0 -15.391,5.7031 -15.391,19.8242 0,14.2578 5.856,19.7344 14.715,19.7344 8.934,0 14.039,-5.0977 14.039,-18.6914 v -1.3477 c 0,-0.6719 -0.527,-1.1992 -1.199,-1.1992 h -20.644 c 0.144,-10.2852 2.402,-12.8438 8.632,-12.8438 3.227,0 5.332,0.9766 7.282,2.336 0.902,0.6719 2.175,0.4492 2.777,-0.3828 l 1.199,-1.5703 c 0.602,-0.8321 0.449,-2.1094 -0.449,-2.7071 -3.074,-2.1758 -6.23,-3.1523 -10.961,-3.1523"
         style="fill:#697d91;fill-opacity:1;fill-rule:nonzero;stroke:none"
         id="path76" />
      <path
         d="m 637.535,14.1133 c -4.133,0 -8.105,1.3476 -10.887,2.9297 -0.902,0.5937 -1.199,1.7968 -0.675,2.7031 l 0.828,1.4258 c 0.523,0.9765 1.722,1.2695 2.629,0.7539 2.625,-1.5039 5.328,-2.4024 8.406,-2.4024 5.102,0 6.68,2.0196 6.68,5.5469 0,4.207 -1.953,5.0274 -7.957,6.6875 -5.254,1.4258 -9.61,4.1992 -9.61,11.6328 0,5.4766 3.531,10.2813 11.785,10.2813 3.606,0 6.309,-0.5938 8.711,-1.5703 0.977,-0.4493 1.426,-1.6524 0.977,-2.6289 l -0.68,-1.5039 c -0.445,-0.9766 -1.574,-1.504 -2.625,-1.0547 -2.179,0.9765 -3.902,1.2812 -6.156,1.2812 -4.055,0 -5.93,-1.4258 -5.93,-4.6484 0,-3.5352 1.574,-4.4336 6.754,-5.8594 5.781,-1.5742 11.039,-3.8281 11.039,-12.3164 0,-7.8008 -4.433,-11.2578 -13.289,-11.2578"
         style="fill:#697d91;fill-opacity:1;fill-rule:nonzero;stroke:none"
         id="path78" />
    </g>
  </g>
</svg>
