b<?xml version="1.0" encoding="UTF-8" standalone="no"?>
<!-- Created with Inkscape (http://www.inkscape.org/) -->

<svg
   version="1.1"
   id="svg2"
   width="143.17332"
   height="73.693336"
   viewBox="0 0 143.17332 73.693336"
   sodipodi:docname="BFH_Logo_B_en_100_RGB.eps"
   xmlns:inkscape="http://www.inkscape.org/namespaces/inkscape"
   xmlns:sodipodi="http://sodipodi.sourceforge.net/DTD/sodipodi-0.dtd"
   xmlns="http://www.w3.org/2000/svg"
   xmlns:svg="http://www.w3.org/2000/svg">
  <defs
     id="defs6" />
  <sodipodi:namedview
     id="namedview4"
     pagecolor="#ffffff"
     bordercolor="#000000"
     borderopacity="0.25"
     inkscape:showpageshadow="2"
     inkscape:pageopacity="0.0"
     inkscape:pagecheckerboard="0"
     inkscape:deskcolor="#d1d1d1" />
  <g
     id="g8"
     inkscape:groupmode="layer"
     inkscape:label="ink_ext_XXXXXX"
     transform="matrix(1.3333333,0,0,-1.3333333,0,73.693333)">
    <g
       id="g10"
       transform="scale(0.1)">
      <path
         d="m 185.602,552.668 c 77.55,0 140.449,-62.867 140.449,-140.449 0,-52.102 -24.153,-97.317 -63.223,-121.828 -0.765,-0.485 -1.32,-1.211 -1.32,-2.161 0,-1.714 1.359,-2.152 1.453,-2.191 50.684,-19.617 82.488,-71.375 82.488,-131.484 0,-77.598 -62.914,-140.473 -140.472,-140.473 L 19.4961,14.1211 C 8.73047,14.1211 0,22.8555 0,33.5977 V 533.176 c 0,10.769 8.73047,19.492 19.4961,19.492 H 185.602"
         style="fill:#697d91;fill-opacity:1;fill-rule:nonzero;stroke:none"
         id="path12" />
      <path
         d="m 117.691,109.43 c -2.476,0 -4.593,2.117 -4.593,4.593 v 112.622 c 0,2.476 2.117,4.593 4.593,4.593 h 7.09 c 2.469,0 4.59,-2.117 4.59,-4.593 v -49.891 h 43.848 v 49.891 c 0,2.476 2.117,4.593 4.594,4.593 h 7.066 c 2.476,0 4.594,-2.117 4.594,-4.593 V 114.023 c 0,-2.476 -2.118,-4.593 -4.594,-4.593 h -7.066 c -2.477,0 -4.594,2.117 -4.594,4.593 v 48.418 h -43.848 v -48.418 c 0,-2.476 -2.121,-4.593 -4.59,-4.593 h -7.09"
         style="fill:#fac300;fill-opacity:1;fill-rule:nonzero;stroke:none"
         id="path14" />
      <path
         d="m 117.234,335.875 c -2.468,0 -4.613,2.137 -4.613,4.613 v 112.641 c 0,2.476 2.145,4.598 4.613,4.598 h 67.743 c 2.472,0 4.593,-2.122 4.593,-4.598 v -4.77 c 0,-2.468 -2.121,-4.593 -4.593,-4.593 h -56.075 v -39.153 h 47.77 c 2.473,0 4.594,-2.136 4.594,-4.613 v -4.77 c 0,-2.476 -2.121,-4.593 -4.594,-4.593 h -47.77 v -50.149 c 0,-2.476 -2.121,-4.613 -4.593,-4.613 h -7.075"
         style="fill:#fac300;fill-opacity:1;fill-rule:nonzero;stroke:none"
         id="path16" />
      <path
         d="m 429.988,110.867 h 8.41 c 7.207,0 9.754,2.778 9.754,9.082 0,6.235 -2.324,9.082 -9.457,9.082 h -8.707 z m -0.078,24.028 h 8.563 c 6.078,0 7.429,2.546 7.429,7.957 0,5.402 -1.726,8.183 -7.804,8.183 h -8.188 z m -4.875,-29.805 c -1.051,0 -1.953,0.894 -1.953,1.953 v 47.82 c 0,1.043 0.902,1.953 1.953,1.953 h 13.285 c 10.891,0 14.864,-5.714 14.864,-13.82 0,-5.398 -1.348,-8.328 -6.305,-10.43 5.031,-1.421 8.633,-5.332 8.633,-12.988 0,-10.281 -6.758,-14.488 -16.367,-14.488 h -14.11"
         style="fill:#697d91;fill-opacity:1;fill-rule:nonzero;stroke:none"
         id="path18" />
      <path
         d="m 481.688,138.574 c -4.352,0 -7.055,-2.258 -7.583,-11.269 h 14.942 c 0,8.64 -1.953,11.269 -7.359,11.269 z m 0.828,-34.465 c -9.836,0 -15.391,5.704 -15.391,19.829 0,14.253 5.855,19.734 14.715,19.734 8.93,0 14.039,-5.098 14.039,-18.692 v -1.347 c 0,-0.672 -0.527,-1.199 -1.199,-1.199 h -20.649 c 0.149,-10.286 2.407,-12.844 8.637,-12.844 3.227,0 5.328,0.976 7.277,2.336 0.907,0.672 2.18,0.445 2.782,-0.383 l 1.199,-1.57 c 0.601,-0.832 0.449,-2.114 -0.449,-2.707 -3.079,-2.176 -6.231,-3.157 -10.961,-3.157"
         style="fill:#697d91;fill-opacity:1;fill-rule:nonzero;stroke:none"
         id="path20" />
      <path
         d="m 510.902,105.09 c -1.047,0 -1.953,0.894 -1.953,1.953 v 33.711 c 0,1.043 0.906,1.941 1.953,1.941 h 1.125 c 1.125,0 2.106,-0.82 2.328,-1.941 l 0.672,-3.383 c 2.782,3.449 6.235,6.008 10.586,6.008 0.227,0 0.532,0 0.754,-0.078 0.305,-0.078 0.602,-0.371 0.528,-0.672 l -0.528,-5.258 c -0.074,-0.523 -0.601,-0.976 -1.199,-0.906 -0.379,0.078 -0.828,0.078 -1.203,0.078 -3.453,0 -5.781,-1.277 -8.559,-3.828 v -25.672 c 0,-1.059 -0.898,-1.953 -1.949,-1.953 h -2.555"
         style="fill:#697d91;fill-opacity:1;fill-rule:nonzero;stroke:none"
         id="path22" />
      <path
         d="m 540.426,105.09 c -1.051,0 -1.953,0.894 -1.953,1.953 v 33.711 c 0,1.043 0.902,1.941 1.953,1.941 h 1.121 c 1.129,0 2.105,-0.82 2.332,-1.875 l 0.598,-2.773 c 3.304,3.301 7.054,5.625 11.484,5.625 5.406,0 9.09,-2.774 9.09,-9.16 v -27.469 c 0,-1.059 -0.906,-1.953 -1.953,-1.953 h -2.555 c -1.051,0 -1.949,0.894 -1.949,1.953 v 25.445 c 0,4.282 -1.199,5.481 -4.578,5.481 -3.004,0 -6.383,-2.102 -9.09,-4.5 v -26.426 c 0,-1.059 -0.899,-1.953 -1.946,-1.953 h -2.554"
         style="fill:#697d91;fill-opacity:1;fill-rule:nonzero;stroke:none"
         id="path24" />
      <path
         d="m 613.715,104.109 c -7.207,0 -14.113,3.829 -14.113,15.84 v 34.914 c 0,1.043 0.902,1.953 1.953,1.953 h 3 c 1.05,0 1.953,-0.91 1.953,-1.953 v -33.711 c 0,-7.578 1.426,-11.035 7.957,-11.035 5.406,0 9.156,2.703 11.336,4.805 v 39.941 c 0,1.043 0.902,1.953 1.953,1.953 h 3.004 c 1.051,0 1.953,-0.91 1.953,-1.953 v -47.82 c 0,-1.059 -0.902,-1.953 -1.953,-1.953 h -1.203 c -1.125,0 -2.176,0.828 -2.403,1.875 l -0.75,2.93 c -2.925,-2.93 -7.132,-5.786 -12.687,-5.786"
         style="fill:#697d91;fill-opacity:1;fill-rule:nonzero;stroke:none"
         id="path26" />
      <path
         d="m 650.922,105.09 c -1.051,0 -1.953,0.894 -1.953,1.953 v 33.711 c 0,1.043 0.902,1.941 1.953,1.941 h 1.125 c 1.129,0 2.101,-0.82 2.328,-1.875 l 0.602,-2.773 c 3.304,3.301 7.054,5.625 11.484,5.625 5.402,0 9.086,-2.774 9.086,-9.16 v -27.469 c 0,-1.059 -0.902,-1.953 -1.953,-1.953 h -2.555 c -1.051,0 -1.945,0.894 -1.945,1.953 v 25.445 c 0,4.282 -1.203,5.481 -4.582,5.481 -3.004,0 -6.383,-2.102 -9.086,-4.5 v -26.426 c 0,-1.059 -0.899,-1.953 -1.949,-1.953 h -2.555"
         style="fill:#697d91;fill-opacity:1;fill-rule:nonzero;stroke:none"
         id="path28" />
      <path
         d="m 695.82,149.68 c -2.554,0 -4.429,2.031 -4.429,4.578 0,2.629 1.949,4.66 4.504,4.66 2.625,0 4.578,-1.953 4.578,-4.66 0,-2.547 -1.953,-4.578 -4.653,-4.578 z m -1.129,-44.59 c -1.046,0 -1.949,0.894 -1.949,1.953 v 30.625 l -3.601,0.602 c -1.129,0.148 -1.953,1.125 -1.953,2.257 v 0.227 c 0,1.043 0.898,1.941 1.953,1.941 h 8.105 c 1.051,0 1.953,-0.898 1.953,-1.941 v -33.711 c 0,-1.059 -0.902,-1.953 -1.953,-1.953 h -2.555"
         style="fill:#697d91;fill-opacity:1;fill-rule:nonzero;stroke:none"
         id="path30" />
      <path
         d="m 725.004,105.09 c -1.125,0 -2.176,0.75 -2.555,1.875 l -11.183,33.855 c -0.297,0.977 0.375,1.875 1.351,1.875 h 3.153 c 1.125,0 2.179,-0.742 2.476,-1.875 l 5.856,-19.668 c 0.832,-2.707 1.726,-7.207 2.328,-9.757 h 0.074 c 0.453,2.25 1.426,6.984 2.328,9.914 l 5.856,19.511 c 0.3,1.133 1.351,1.875 2.48,1.875 h 2.773 c 0.977,0 1.657,-0.898 1.352,-1.875 l -11.41,-33.855 c -0.375,-1.125 -1.426,-1.875 -2.547,-1.875 h -2.332"
         style="fill:#697d91;fill-opacity:1;fill-rule:nonzero;stroke:none"
         id="path32" />
      <path
         d="m 764.945,138.574 c -4.355,0 -7.054,-2.258 -7.582,-11.269 h 14.942 c 0,8.64 -1.953,11.269 -7.36,11.269 z m 0.825,-34.465 c -9.832,0 -15.387,5.704 -15.387,19.829 0,14.253 5.855,19.734 14.715,19.734 8.929,0 14.039,-5.098 14.039,-18.692 v -1.347 c 0,-0.672 -0.528,-1.199 -1.203,-1.199 h -20.645 c 0.152,-10.286 2.402,-12.844 8.633,-12.844 3.226,0 5.328,0.976 7.281,2.336 0.902,0.672 2.18,0.445 2.777,-0.383 l 1.204,-1.57 c 0.597,-0.832 0.449,-2.114 -0.45,-2.707 -3.082,-2.176 -6.23,-3.157 -10.964,-3.157"
         style="fill:#697d91;fill-opacity:1;fill-rule:nonzero;stroke:none"
         id="path34" />
      <path
         d="m 794.164,105.09 c -1.051,0 -1.953,0.894 -1.953,1.953 v 33.711 c 0,1.043 0.902,1.941 1.953,1.941 h 1.125 c 1.129,0 2.106,-0.82 2.328,-1.941 l 0.676,-3.383 c 2.777,3.449 6.227,6.008 10.586,6.008 0.223,0 0.523,0 0.75,-0.078 0.305,-0.078 0.601,-0.371 0.527,-0.672 l -0.527,-5.258 c -0.074,-0.523 -0.602,-0.976 -1.199,-0.906 -0.379,0.078 -0.828,0.078 -1.203,0.078 -3.454,0 -5.782,-1.277 -8.559,-3.828 v -25.672 c 0,-1.059 -0.898,-1.953 -1.949,-1.953 h -2.555"
         style="fill:#697d91;fill-opacity:1;fill-rule:nonzero;stroke:none"
         id="path36" />
      <path
         d="m 830.922,104.109 c -4.125,0 -8.106,1.352 -10.883,2.934 -0.902,0.594 -1.199,1.797 -0.68,2.703 l 0.829,1.426 c 0.527,0.976 1.726,1.269 2.628,0.754 2.629,-1.504 5.329,-2.406 8.411,-2.406 5.101,0 6.679,2.023 6.679,5.546 0,4.211 -1.953,5.032 -7.961,6.692 -5.254,1.426 -9.609,4.199 -9.609,11.633 0,5.476 3.531,10.281 11.789,10.281 3.602,0 6.309,-0.598 8.711,-1.57 0.973,-0.454 1.426,-1.653 0.973,-2.629 l -0.676,-1.504 c -0.449,-0.977 -1.578,-1.504 -2.625,-1.055 -2.18,0.977 -3.906,1.277 -6.16,1.277 -4.051,0 -5.926,-1.421 -5.926,-4.644 0,-3.535 1.574,-4.438 6.754,-5.859 5.777,-1.575 11.035,-3.833 11.035,-12.317 0,-7.805 -4.43,-11.262 -13.289,-11.262"
         style="fill:#697d91;fill-opacity:1;fill-rule:nonzero;stroke:none"
         id="path38" />
      <path
         d="m 862.477,149.68 c -2.555,0 -4.43,2.031 -4.43,4.578 0,2.629 1.953,4.66 4.504,4.66 2.625,0 4.578,-1.953 4.578,-4.66 0,-2.547 -1.953,-4.578 -4.652,-4.578 z m -1.129,-44.59 c -1.051,0 -1.953,0.894 -1.953,1.953 v 30.625 l -3.602,0.602 c -1.125,0.148 -1.949,1.125 -1.949,2.257 v 0.227 c 0,1.043 0.898,1.941 1.949,1.941 h 8.109 c 1.047,0 1.953,-0.898 1.953,-1.941 v -33.711 c 0,-1.059 -0.906,-1.953 -1.953,-1.953 h -2.554"
         style="fill:#697d91;fill-opacity:1;fill-rule:nonzero;stroke:none"
         id="path40" />
      <path
         d="m 879.867,137.441 c -1.051,0 -1.945,0.911 -1.945,1.954 v 1.359 c 0,1.043 0.894,1.941 1.945,1.941 h 2.328 v 7.735 c 0,1.133 0.828,2.109 1.875,2.402 l 2.707,0.527 c 0.977,0.227 1.875,-0.527 1.875,-1.504 v -9.16 h 5.782 c 1.05,0 1.953,-0.898 1.953,-1.941 v -1.359 c 0,-1.043 -0.903,-1.954 -1.953,-1.954 h -5.782 v -24.699 c 0,-2.398 0.977,-3.445 3.082,-3.445 0.899,0 1.649,0.144 2.325,0.371 0.976,0.305 2.027,-0.305 2.328,-1.277 l 0.297,-1.125 c 0.23,-1.055 -0.297,-2.098 -1.348,-2.481 -1.199,-0.371 -2.555,-0.676 -4.129,-0.676 -5.102,0 -9.012,2.036 -9.012,8.039 v 25.293 h -2.328"
         style="fill:#697d91;fill-opacity:1;fill-rule:nonzero;stroke:none"
         id="path42" />
      <path
         d="m 912.297,90 c -1.051,-0.3047 -2.102,0.3711 -2.402,1.4258 l -0.375,1.4258 c -0.301,1.0547 0.3,2.1757 1.347,2.4804 4.66,1.4922 6.61,3.5235 8.488,9.758 h -0.078 c -0.898,0 -1.648,0.594 -1.953,1.426 l -10.66,34.304 c -0.297,0.977 0.379,1.875 1.356,1.875 h 3.152 c 1.125,0 2.18,-0.742 2.476,-1.875 l 5.782,-20.261 c 0.824,-3.008 1.726,-7.434 2.25,-10.293 h 0.078 c 0.523,2.703 1.203,6.609 2.324,10.293 l 6.086,20.261 c 0.367,1.133 1.426,1.875 2.547,1.875 h 2.777 c 0.977,0 1.656,-0.898 1.356,-1.875 L 924.984,103.887 C 921.605,93.75 918.676,91.5039 912.297,90"
         style="fill:#697d91;fill-opacity:1;fill-rule:nonzero;stroke:none"
         id="path44" />
      <path
         d="m 438.469,19.2188 c 5.707,0 8.406,3.0781 8.406,14.6367 0,11.6328 -2.777,14.7187 -8.48,14.7187 -5.707,0 -8.411,-3.0078 -8.411,-14.6367 0,-11.5664 2.782,-14.7187 8.485,-14.7187 z m 0,-5.1094 c -9.16,0 -15.395,5.7031 -15.395,19.8281 0,14.1094 6.086,19.7344 15.242,19.7344 9.161,0 15.469,-5.625 15.469,-19.7344 0,-14.125 -6.156,-19.8281 -15.316,-19.8281"
         style="fill:#697d91;fill-opacity:1;fill-rule:nonzero;stroke:none"
         id="path46" />
      <path
         d="m 464.91,47.4414 c -1.047,0 -1.949,0.9102 -1.949,1.9531 v 1.3594 c 0,1.043 0.902,1.9414 1.949,1.9414 h 2.18 v 6.0039 c 0,8.6446 4.43,11.1953 9.984,11.1953 2.172,0 4.278,-0.3828 6.078,-1.125 0.981,-0.3789 1.426,-1.582 0.981,-2.5586 l -0.602,-1.2695 c -0.449,-0.9766 -1.652,-1.5039 -2.707,-1.2109 -0.898,0.3008 -1.875,0.457 -2.851,0.457 -3.153,0 -4.426,-1.582 -4.426,-5.4102 v -6.082 h 5.105 c 1.051,0 1.95,-0.8984 1.95,-1.9414 v -1.3594 c 0,-1.0429 -0.899,-1.9531 -1.95,-1.9531 h -5.105 V 17.043 c 0,-1.0586 -0.902,-1.9532 -1.953,-1.9532 h -2.551 c -1.055,0 -1.953,0.8946 -1.953,1.9532 v 30.3984 h -2.18"
         style="fill:#697d91;fill-opacity:1;fill-rule:nonzero;stroke:none"
         id="path48" />
      <path
         d="m 522.223,44.8945 -2.629,-8.9375 h 12.613 l -2.477,8.9375 c -2.25,8.0352 -2.855,10.9571 -3.601,14.9414 h -0.152 c -0.75,-4.1328 -1.426,-7.0625 -3.754,-14.9414 z M 508.406,15.0898 c -0.972,0 -1.648,0.8946 -1.343,1.875 l 14.785,48.0469 c 0.375,1.1211 1.422,1.875 2.55,1.875 h 3.754 c 1.125,0 2.18,-0.7539 2.477,-1.875 l 14.492,-48.0469 c 0.227,-0.9804 -0.453,-1.875 -1.43,-1.875 h -3.675 c -1.129,0 -2.18,0.75 -2.477,1.875 l -3.684,13.1329 h -15.984 l -3.832,-13.1329 c -0.301,-1.125 -1.348,-1.875 -2.476,-1.875 h -3.157"
         style="fill:#697d91;fill-opacity:1;fill-rule:nonzero;stroke:none"
         id="path50" />
      <path
         d="m 572.207,19.668 c 5.332,0 7.656,1.9531 7.656,14.0429 0,12.0821 -1.953,14.4141 -7.054,14.4141 -3.676,0 -6.231,-1.8867 -8.938,-4.4336 V 23.3516 c 2.18,-2.1133 5.184,-3.6836 8.336,-3.6836 z M 559.371,0 c -1.051,0 -1.953,0.898438 -1.953,1.95313 V 50.7539 c 0,1.043 0.902,1.9414 1.953,1.9414 h 1.121 c 1.129,0 2.18,-0.8203 2.403,-1.875 l 0.601,-2.4023 c 2.856,3.1523 6.461,5.2539 10.442,5.2539 7.207,0 12.835,-4.0547 12.835,-19.5117 0,-14.1211 -4.132,-20.0508 -12.918,-20.0508 -4.128,0 -7.582,1.875 -9.984,4.2109 V 1.95313 C 563.871,0.898438 562.973,0 561.926,0 h -2.555"
         style="fill:#697d91;fill-opacity:1;fill-rule:nonzero;stroke:none"
         id="path52" />
      <path
         d="m 615.23,19.668 c 5.329,0 7.657,1.9531 7.657,14.0429 0,12.0821 -1.953,14.4141 -7.059,14.4141 -3.68,0 -6.226,-1.8867 -8.933,-4.4336 V 23.3516 c 2.175,-2.1133 5.179,-3.6836 8.335,-3.6836 z M 602.395,0 c -1.055,0 -1.957,0.898438 -1.957,1.95313 V 50.7539 c 0,1.043 0.902,1.9414 1.957,1.9414 h 1.121 c 1.129,0 2.175,-0.8203 2.402,-1.875 l 0.602,-2.4023 c 2.855,3.1523 6.46,5.2539 10.433,5.2539 7.207,0 12.844,-4.0547 12.844,-19.5117 0,-14.1211 -4.133,-20.0508 -12.918,-20.0508 -4.125,0 -7.582,1.875 -9.984,4.2109 V 1.95313 C 606.895,0.898438 605.996,0 604.941,0 h -2.546"
         style="fill:#697d91;fill-opacity:1;fill-rule:nonzero;stroke:none"
         id="path54" />
      <path
         d="m 650.297,14.3359 c -4.805,0 -6.828,2.5586 -6.828,9.1602 v 43.9922 c 0,1.0469 0.894,1.9531 1.953,1.9531 h 2.547 c 1.054,0 1.953,-0.9062 1.953,-1.9531 V 22.2969 c 0,-1.875 0.824,-2.6289 2.629,-2.6289 0.301,0 0.597,0 0.824,0.0781 0.375,0 0.75,-0.2266 0.824,-0.6055 l 0.375,-2.1758 c 0.227,-1.0468 -0.449,-2.1015 -1.5,-2.3242 -0.902,-0.1484 -1.879,-0.3047 -2.777,-0.3047"
         style="fill:#697d91;fill-opacity:1;fill-rule:nonzero;stroke:none"
         id="path56" />
      <path
         d="m 671.148,59.6797 c -2.554,0 -4.429,2.0312 -4.429,4.5781 0,2.6289 1.953,4.6602 4.504,4.6602 2.625,0 4.578,-1.9532 4.578,-4.6602 0,-2.5469 -1.953,-4.5781 -4.653,-4.5781 z M 670.02,15.0898 c -1.051,0 -1.954,0.8946 -1.954,1.9532 v 30.625 l -3.601,0.6015 c -1.125,0.1485 -1.949,1.125 -1.949,2.2578 v 0.2266 c 0,1.043 0.898,1.9414 1.949,1.9414 h 8.109 c 1.047,0 1.953,-0.8984 1.953,-1.9414 V 17.043 c 0,-1.0586 -0.906,-1.9532 -1.953,-1.9532 h -2.554"
         style="fill:#697d91;fill-opacity:1;fill-rule:nonzero;stroke:none"
         id="path58" />
      <path
         d="m 702.355,48.5742 c -4.359,0 -7.058,-2.2578 -7.585,-11.2695 h 14.941 c 0,8.6406 -1.953,11.2695 -7.356,11.2695 z m 0.825,-34.4648 c -9.836,0 -15.391,5.7031 -15.391,19.8281 0,14.2539 5.856,19.7344 14.715,19.7344 8.934,0 14.039,-5.0977 14.039,-18.6914 v -1.3477 c 0,-0.6719 -0.527,-1.1992 -1.199,-1.1992 h -20.649 c 0.149,-10.2852 2.407,-12.8438 8.633,-12.8438 3.231,0 5.332,0.9766 7.281,2.336 0.907,0.6719 2.18,0.4453 2.782,-0.3828 l 1.199,-1.5703 c 0.601,-0.8321 0.449,-2.1133 -0.449,-2.7071 -3.078,-2.1758 -6.231,-3.1562 -10.961,-3.1562"
         style="fill:#697d91;fill-opacity:1;fill-rule:nonzero;stroke:none"
         id="path60" />
      <path
         d="m 742.02,19.668 c 3.679,0 6.234,1.5039 8.933,4.0547 v 20.3398 c -2.18,2.1094 -5.183,4.0625 -8.332,4.0625 -5.332,0 -7.66,-1.9531 -7.66,-14.043 0,-12.0898 1.953,-14.414 7.059,-14.414 z m -1.125,-5.5586 c -7.207,0 -12.836,4.0547 -12.836,19.5234 0,14.1094 4.129,20.0391 12.91,20.0391 4.129,0 7.582,-2.2461 9.984,-4.5781 v 18.3945 c 0,1.0469 0.902,1.9531 1.953,1.9531 h 2.555 c 1.047,0 1.949,-0.9062 1.949,-1.9531 V 17.043 c 0,-1.0586 -0.902,-1.9532 -1.949,-1.9532 h -1.129 c -1.129,0 -2.18,0.75 -2.477,1.875 l -0.527,2.0274 c -2.851,-3.1524 -6.457,-4.8828 -10.433,-4.8828"
         style="fill:#697d91;fill-opacity:1;fill-rule:nonzero;stroke:none"
         id="path62" />
      <path
         d="m 804.121,14.1094 c -5.328,0 -10.355,1.5742 -13.961,4.0547 -0.902,0.6054 -1.199,1.875 -0.597,2.7812 l 0.972,1.7227 c 0.602,0.9062 1.805,1.1992 2.629,0.6015 3.379,-2.2539 6.078,-3.2304 10.434,-3.2304 6.906,0 9.461,3.1523 9.461,8.4843 0,6.3125 -3.528,8.1094 -9.836,10.5079 -8.559,3.3125 -12.461,6.7617 -12.461,15.3945 0,8.8555 5.554,13.3672 14.558,13.3672 4.735,0 7.961,-0.9063 10.813,-2.5586 0.902,-0.5274 1.277,-1.7266 0.754,-2.6953 l -0.981,-1.9532 c -0.519,-0.9062 -1.722,-1.2773 -2.625,-0.75 -2.324,1.3477 -4.582,2.0196 -7.582,2.0196 -4.953,0 -8.105,-2.0196 -8.105,-7.2071 0,-5.2539 2.023,-6.7578 8.258,-9.1601 8.031,-3.0781 14.339,-6.2305 14.339,-16.582 0,-7.668 -3.828,-14.7969 -16.07,-14.7969"
         style="fill:#697d91;fill-opacity:1;fill-rule:nonzero;stroke:none"
         id="path64" />
      <path
         d="m 847.113,14.1094 c -9.609,0 -14.941,6.3125 -14.941,19.8281 0,14.332 5.711,19.7344 15.016,19.7344 3.605,0 6.457,-0.8203 9.16,-2.9961 0.898,-0.6758 0.976,-1.875 0.3,-2.707 l -1.199,-1.504 c -0.754,-0.8203 -1.953,-0.8984 -2.777,-0.2265 -1.656,1.2812 -3.231,1.9531 -5.707,1.9531 -5.703,0 -7.883,-2.4687 -7.883,-14.2539 0,-11.5664 2.402,-14.3477 8.406,-14.3477 2.325,0 3.903,0.8985 5.481,2.1797 0.824,0.6719 2.105,0.6016 2.777,-0.2265 l 1.356,-1.4258 c 0.75,-0.7539 0.671,-2.0313 -0.153,-2.707 -2.476,-2.1758 -5.558,-3.3008 -9.836,-3.3008"
         style="fill:#697d91;fill-opacity:1;fill-rule:nonzero;stroke:none"
         id="path66" />
      <path
         d="m 876.488,59.6797 c -2.55,0 -4.425,2.0312 -4.425,4.5781 0,2.6289 1.953,4.6602 4.5,4.6602 2.625,0 4.582,-1.9532 4.582,-4.6602 0,-2.5469 -1.957,-4.5781 -4.657,-4.5781 z m -1.129,-44.5899 c -1.046,0 -1.953,0.8946 -1.953,1.9532 v 30.625 l -3.601,0.6015 c -1.121,0.1485 -1.95,1.125 -1.95,2.2578 v 0.2266 c 0,1.043 0.899,1.9414 1.95,1.9414 h 8.109 c 1.051,0 1.953,-0.8984 1.953,-1.9414 V 17.043 c 0,-1.0586 -0.902,-1.9532 -1.953,-1.9532 h -2.555"
         style="fill:#697d91;fill-opacity:1;fill-rule:nonzero;stroke:none"
         id="path68" />
      <path
         d="m 907.695,48.5742 c -4.355,0 -7.054,-2.2578 -7.582,-11.2695 h 14.942 c 0,8.6406 -1.953,11.2695 -7.36,11.2695 z m 0.825,-34.4648 c -9.832,0 -15.391,5.7031 -15.391,19.8281 0,14.2539 5.855,19.7344 14.719,19.7344 8.929,0 14.039,-5.0977 14.039,-18.6914 v -1.3477 c 0,-0.6719 -0.532,-1.1992 -1.203,-1.1992 h -20.645 c 0.149,-10.2852 2.402,-12.8438 8.633,-12.8438 3.226,0 5.332,0.9766 7.281,2.336 0.902,0.6719 2.176,0.4453 2.777,-0.3828 l 1.204,-1.5703 c 0.597,-0.8321 0.449,-2.1133 -0.454,-2.7071 -3.074,-2.1758 -6.226,-3.1562 -10.96,-3.1562"
         style="fill:#697d91;fill-opacity:1;fill-rule:nonzero;stroke:none"
         id="path70" />
      <path
         d="m 936.914,15.0898 c -1.055,0 -1.953,0.8946 -1.953,1.9532 v 33.7109 c 0,1.043 0.898,1.9414 1.953,1.9414 h 1.121 c 1.129,0 2.106,-0.8203 2.332,-1.875 l 0.602,-2.7734 c 3.301,3.3008 7.054,5.625 11.48,5.625 5.406,0 9.09,-2.7735 9.09,-9.1602 V 17.043 c 0,-1.0586 -0.902,-1.9532 -1.953,-1.9532 h -2.555 c -1.051,0 -1.953,0.8946 -1.953,1.9532 v 25.4453 c 0,4.2812 -1.199,5.4805 -4.574,5.4805 -3.004,0 -6.383,-2.1016 -9.086,-4.5 V 17.043 c 0,-1.0586 -0.898,-1.9532 -1.953,-1.9532 h -2.551"
         style="fill:#697d91;fill-opacity:1;fill-rule:nonzero;stroke:none"
         id="path72" />
      <path
         d="m 989.59,14.1094 c -9.61,0 -14.942,6.3125 -14.942,19.8281 0,14.332 5.707,19.7344 15.016,19.7344 3.602,0 6.457,-0.8203 9.16,-2.9961 0.903,-0.6758 0.977,-1.875 0.297,-2.707 l -1.199,-1.504 c -0.75,-0.8203 -1.949,-0.8984 -2.777,-0.2265 -1.653,1.2812 -3.231,1.9531 -5.707,1.9531 -5.704,0 -7.879,-2.4687 -7.879,-14.2539 0,-11.5664 2.402,-14.3477 8.406,-14.3477 2.324,0 3.902,0.8985 5.48,2.1797 0.825,0.6719 2.106,0.6016 2.778,-0.2265 l 1.351,-1.4258 c 0.746,-0.7539 0.676,-2.0313 -0.148,-2.707 -2.477,-2.1758 -5.559,-3.3008 -9.836,-3.3008"
         style="fill:#697d91;fill-opacity:1;fill-rule:nonzero;stroke:none"
         id="path74" />
      <path
         d="m 1024.4,48.5742 c -4.35,0 -7.05,-2.2578 -7.58,-11.2695 h 14.94 c 0,8.6406 -1.95,11.2695 -7.36,11.2695 z m 0.83,-34.4648 c -9.83,0 -15.39,5.7031 -15.39,19.8281 0,14.2539 5.85,19.7344 14.72,19.7344 8.93,0 14.03,-5.0977 14.03,-18.6914 v -1.3477 c 0,-0.6719 -0.52,-1.1992 -1.2,-1.1992 h -20.64 c 0.14,-10.2852 2.4,-12.8438 8.63,-12.8438 3.23,0 5.33,0.9766 7.28,2.336 0.9,0.6719 2.18,0.4453 2.78,-0.3828 l 1.2,-1.5703 c 0.6,-0.8321 0.45,-2.1133 -0.45,-2.7071 -3.07,-2.1758 -6.23,-3.1562 -10.96,-3.1562"
         style="fill:#697d91;fill-opacity:1;fill-rule:nonzero;stroke:none"
         id="path76" />
      <path
         d="m 1060.56,14.1094 c -4.13,0 -8.11,1.3515 -10.89,2.9336 -0.9,0.5937 -1.2,1.7968 -0.68,2.7031 l 0.83,1.4258 c 0.53,0.9765 1.73,1.2695 2.63,0.7539 2.63,-1.5039 5.33,-2.4063 8.41,-2.4063 5.1,0 6.68,2.0235 6.68,5.5469 0,4.2109 -1.95,5.0313 -7.96,6.6914 -5.25,1.4258 -9.61,4.1992 -9.61,11.6328 0,5.4766 3.53,10.2813 11.79,10.2813 3.6,0 6.31,-0.5977 8.71,-1.5703 0.98,-0.4532 1.42,-1.6524 0.98,-2.6289 l -0.68,-1.5039 c -0.45,-0.9766 -1.58,-1.504 -2.63,-1.0547 -2.18,0.9765 -3.9,1.2773 -6.16,1.2773 -4.05,0 -5.93,-1.4219 -5.93,-4.6445 0,-3.5352 1.58,-4.4375 6.76,-5.8594 5.78,-1.5742 11.04,-3.832 11.04,-12.3164 0,-7.8047 -4.44,-11.2617 -13.29,-11.2617"
         style="fill:#697d91;fill-opacity:1;fill-rule:nonzero;stroke:none"
         id="path78" />
    </g>
  </g>
</svg>
